<svg width="132" height="14" viewBox="0 0 132 14" fill="none" xmlns="http://www.w3.org/2000/svg">
<path d="M2.6 13H0.314V0.219999H4.814C6.47 0.219999 7.736 0.555999 8.612 1.228C9.488 1.9 9.926 2.872 9.926 4.144C9.926 5.428 9.452 6.436 8.504 7.168C7.556 7.888 6.176 8.248 4.364 8.248H2.6V13ZM4.724 2.128H2.6V6.322H4.49C5.57 6.322 6.356 6.148 6.848 5.8C7.34 5.452 7.586 4.912 7.586 4.18C7.586 3.448 7.352 2.926 6.884 2.614C6.428 2.29 5.708 2.128 4.724 2.128ZM21.6444 10.768L22.1844 12.586C21.9444 12.766 21.6504 12.904 21.3024 13C20.9544 13.108 20.5884 13.162 20.2044 13.162C18.8604 13.162 17.8044 12.568 17.0364 11.38L15.1824 8.536C14.9904 8.236 14.7924 8.026 14.5884 7.906C14.3844 7.786 14.1624 7.726 13.9224 7.726H13.8324V13H11.5464V0.219999H15.5244C17.1444 0.219999 18.3684 0.555999 19.1964 1.228C20.0364 1.9 20.4564 2.824 20.4564 4C20.4564 4.708 20.3004 5.32 19.9884 5.836C19.6764 6.34 19.2504 6.742 18.7104 7.042C18.1704 7.342 17.5584 7.534 16.8744 7.618C17.2344 7.81 17.5644 8.134 17.8644 8.59L18.8724 10.084C19.1364 10.468 19.3824 10.732 19.6104 10.876C19.8504 11.02 20.1504 11.092 20.5104 11.092C20.9304 11.092 21.3084 10.984 21.6444 10.768ZM15.3624 2.128H13.8324V5.89H15.2544C16.2384 5.89 16.9644 5.74 17.4324 5.44C17.9004 5.14 18.1344 4.66 18.1344 4C18.1344 2.752 17.2104 2.128 15.3624 2.128ZM22.8843 13V0.219999H25.2243V13H22.8843ZM36.2649 0.219999H38.5149V13H36.4629L30.1089 4.09V13H27.8589V0.219999H29.9109L36.2649 9.13V0.219999ZM50.418 0.219999L50.13 2.272H46.17V13H43.83V2.272H39.726V0.219999H50.418ZM51.4839 13V0.219999H53.8239V13H51.4839ZM64.8645 0.219999H67.1145V13H65.0625L58.7085 4.09V13H56.4585V0.219999H58.5105L64.8645 9.13V0.219999ZM75.9756 6.34H81.0516V13H79.1976L78.9996 11.632C78.5796 12.184 78.0456 12.58 77.3976 12.82C76.7496 13.048 76.0356 13.162 75.2556 13.162C74.0316 13.162 72.9696 12.91 72.0696 12.406C71.1696 11.902 70.4736 11.182 69.9816 10.246C69.4896 9.298 69.2436 8.17 69.2436 6.862C69.2436 5.506 69.5196 4.318 70.0716 3.298C70.6356 2.278 71.4276 1.48 72.4476 0.903999C73.4796 0.327999 74.6856 0.0399995 76.0656 0.0399995C77.1936 0.0399995 78.1596 0.249999 78.9636 0.669999C79.7676 1.09 80.4336 1.72 80.9616 2.56L79.1616 3.874C78.8376 3.298 78.3996 2.872 77.8476 2.596C77.2956 2.32 76.6896 2.182 76.0296 2.182C75.1416 2.182 74.3676 2.38 73.7076 2.776C73.0596 3.16 72.5556 3.7 72.1956 4.396C71.8476 5.092 71.6736 5.902 71.6736 6.826C71.6736 8.17 72.0096 9.214 72.6816 9.958C73.3656 10.69 74.3016 11.056 75.4896 11.056C76.0536 11.056 76.5876 10.954 77.0916 10.75C77.5956 10.546 78.0036 10.246 78.3156 9.85C78.6396 9.442 78.8016 8.944 78.8016 8.356V8.248H75.9756V6.34ZM98.4957 10.516C97.9917 11.368 97.2957 12.022 96.4077 12.478C95.5197 12.934 94.5237 13.162 93.4197 13.162C92.1117 13.162 90.9897 12.91 90.0537 12.406C89.1177 11.902 88.3977 11.182 87.8937 10.246C87.4017 9.298 87.1557 8.17 87.1557 6.862C87.1557 5.506 87.4317 4.318 87.9837 3.298C88.5357 2.278 89.3037 1.48 90.2877 0.903999C91.2717 0.327999 92.4117 0.0399995 93.7077 0.0399995C94.8117 0.0399995 95.7537 0.249999 96.5337 0.669999C97.3257 1.09 97.9857 1.726 98.5137 2.578L96.7137 3.874C96.3897 3.274 95.9637 2.836 95.4357 2.56C94.9077 2.284 94.3257 2.146 93.6897 2.146C92.8737 2.146 92.1537 2.344 91.5297 2.74C90.9057 3.136 90.4137 3.688 90.0537 4.396C89.7057 5.092 89.5317 5.902 89.5317 6.826C89.5317 8.158 89.8737 9.196 90.5577 9.94C91.2537 10.684 92.2197 11.056 93.4557 11.056C94.1397 11.056 94.7697 10.9 95.3457 10.588C95.9217 10.276 96.3897 9.802 96.7497 9.166L98.4957 10.516ZM99.6831 13V0.219999H102.023V10.948H107.711L107.549 13H99.6831ZM117.074 0.219999H119.396L119.414 7.024C119.426 8.296 119.216 9.394 118.784 10.318C118.364 11.23 117.746 11.932 116.93 12.424C116.126 12.916 115.154 13.162 114.014 13.162C112.19 13.162 110.816 12.706 109.892 11.794C108.98 10.87 108.524 9.466 108.524 7.582V0.219999H110.864V7.402C110.864 8.686 111.122 9.616 111.638 10.192C112.166 10.768 112.946 11.056 113.978 11.056C115.022 11.056 115.802 10.72 116.318 10.048C116.846 9.376 117.104 8.332 117.092 6.916L117.074 0.219999ZM121.99 13V0.219999H126.238C127.858 0.219999 129.1 0.519999 129.964 1.12C130.84 1.708 131.278 2.572 131.278 3.712C131.278 4.324 131.128 4.876 130.828 5.368C130.528 5.86 130.102 6.244 129.55 6.52C130.138 6.748 130.606 7.114 130.954 7.618C131.302 8.11 131.476 8.686 131.476 9.346C131.476 10.462 131.062 11.35 130.234 12.01C129.406 12.67 128.272 13 126.832 13H121.99ZM126.274 2.128H124.276V5.602H126.238C127.15 5.602 127.828 5.464 128.272 5.188C128.716 4.9 128.938 4.444 128.938 3.82C128.938 3.244 128.722 2.818 128.29 2.542C127.87 2.266 127.198 2.128 126.274 2.128ZM124.276 11.092H126.778C127.51 11.092 128.086 10.948 128.506 10.66C128.938 10.372 129.154 9.916 129.154 9.292C129.154 8.128 128.344 7.546 126.724 7.546H124.276V11.092Z" fill="#111111"/>
</svg>
